<?xml version="1.0" standalone="no"?><!DOCTYPE svg PUBLIC "-//W3C//DTD SVG 1.1//EN" "http://www.w3.org/Graphics/SVG/1.1/DTD/svg11.dtd"><svg t="1515587542547" class="icon" style="" viewBox="0 0 1024 1024" version="1.1" xmlns="http://www.w3.org/2000/svg" p-id="1417" xmlns:xlink="http://www.w3.org/1999/xlink" width="48" height="48"><defs><style type="text/css"></style></defs><path d="M515.43890103 510.81539771zM15.27249158 510.81539771c-0.00829207 178.69728323 95.32140664 343.82375982 250.07668961 433.17476993 154.75528181 89.35101012 345.42415786 89.35101012 500.17943968 0C920.28390267 854.63915636 1015.61241712 689.51267978 1015.60412506 510.81539771c0.00829207-178.69728323-95.3202224-343.82375982-250.07550419-433.17476992-154.75528181-89.34982587-345.42415786-89.34982587-500.17943968 0C110.59389938 166.99163789 15.26419952 332.11693022 15.27249158 510.81539771" fill="#F1C345" p-id="1418"></path><path d="M747.56412378 838.61030091c-23.3935291-9.11788513-50.8964452-16.836755-81.40825093-22.81544358-17.0807835-3.34887135-35.0891094-6.15993331-53.89230462-8.34078653-27.52305415 7.39784192-60.87435195 11.73348789-96.82348296 11.73348789-35.9905925 0-69.37624399-4.34512228-96.91825078-11.75954834-20.25907187 2.34432838-39.59059904 5.42192537-57.83584679 9.11314699 1.62053608 0.55557898 3.2777955 1.01875863 4.92320779 1.51629079-1.64541228-0.49753334-3.30267171-0.95952758-4.92320779-1.51629079-28.78820978 5.82705939-54.82458749 13.2095026-77.13894383 21.8642069-0.43356413-1.26041746-54.14936336 28.6709331-85.02128771 59.45401439 86.25919863 70.67812178 196.5445036 113.12005886 316.76033142 113.12005887 120.35679529 0 230.76529934-42.53433639 317.06832796-113.36053347-30.85178632-30.59828148-84.33777266-60.32114263-84.79029176-59.00860312z" fill="#4D846C" p-id="1419"></path><path d="M734.89361603 444.44922877c-6.35302286-2.3988201-13.40259213-1.24738609-20.36213176 2.616787 0.6159931-41.19455099-5.48234067-78.47517534-17.63754555-108.05825326H333.67586678c-12.6361541 30.75583425-18.77002579 69.80506997-17.5700236 112.95184554-6.98086193-3.89497286-14.05530856-5.06062135-20.43083913-2.65232494-18.07111085 6.82567998-23.65414175 39.29326421-12.47030926 72.51899443 11.18264709 33.21625274 34.88891205 54.61254301 52.95765325 47.80226292 16.26222223 52.75982439 40.40086708 98.2307903 68.12056468 132.23954386 4.86871607 5.97276619 9.84523134 11.60081248 14.91296051 16.84267741v88.64024919l-0.67640839 0.08055334c27.54082254 7.41324181 60.92528976 11.75954833 96.91706652 11.75954834 35.949131 0 69.30042881-4.33564481 96.82466837-11.73467214-0.29733483-0.03316942-0.58993149-0.07226127-0.88845287-0.10542954V718.74866932c5.10089861-5.27385008 10.1117664-10.93625008 15.01246764-16.9504766 27.66165195-33.94596861 51.7529129-79.30913533 67.99736675-131.93391582 0.48331771-1.56249045 43.00699235 0 52.98016094-52.89842335 11.18501675-33.22336057 5.60198468-65.6921302-12.46912616-72.51662478z" fill="#EDD4A0" p-id="1420"></path><path d="M696.89512297 340.7206979s-2.19388343 46.21845017 17.63754556 112.71492486c0 0 86.62760932-251.73987144-76.19007684-251.73987029 0 0-421.65806469-146.60758599-322.23674851 256.84195314 0 0 2.7897385 11.2371388 7.73308548 20.4059629 66.79617916-98.80295342 288.0633367-66.79499492 373.05619431-138.22297061z" fill="#5C4847" p-id="1421"></path><path d="M328.76450496 923.15419449h90.41359872v15.46261593h-90.41359872v-15.46261593zM514.96505963 819.17689697s20.71158981 34.87706608 72.20507433 45.08360144c0 0 26.51021909-35.23600043 24.6207783-56.81708818l-96.82585263 11.73348674zM514.91885998 819.19348226s-20.71158981 34.87588181-72.20507431 45.08241603c0 0-26.51021909-35.23600043-24.62077714-56.81708818l96.82585145 11.73467215z" fill="#B8C8C2" p-id="1422"></path><path d="M514.96624506 844.97398548z m-9.10603916 0a9.10722342 9.10722342 0 1 0 18.21444683 0 9.11196272 9.11196272 0 0 0-4.55242748-7.88945284 9.10722342 9.10722342 0 1 0-13.66201935 7.88945284M514.91885998 879.92094318z m-9.10840765 0a9.10840881 9.10840881 0 1 0 18.21563223 0 9.10840881 9.10840881 0 0 0-18.21563223 0M514.91885998 915.48507821z m-9.10840765 0a9.10840881 9.10840881 0 1 0 18.21563223 0 9.10840881 9.10840881 0 0 0-18.21563223 0" fill="#55A47D" p-id="1423"></path></svg>
